<svg xmlns="http://www.w3.org/2000/svg" width="195" height="22" viewBox="0 0 195 22" fill="none"><path d="M88.243 1.60458V17.9672H86.6106V1.60458H88.243ZM102.773 8.16809H100.956C100.904 7.87011 100.808 7.60615 100.669 7.37619C100.53 7.14299 100.357 6.94543 100.149 6.78348C99.9421 6.62154 99.7057 6.50008 99.4401 6.41911C99.1777 6.3349 98.8943 6.2928 98.5899 6.2928C98.049 6.2928 97.5697 6.42883 97.1519 6.70089C96.734 6.96972 96.4069 7.36485 96.1705 7.88631C95.934 8.40452 95.8158 9.03771 95.8158 9.78589C95.8158 10.547 95.934 11.1883 96.1705 11.7098C96.4102 12.228 96.7373 12.6199 97.1519 12.8855C97.5697 13.1478 98.0474 13.279 98.585 13.279C98.883 13.279 99.1615 13.2401 99.4207 13.1624C99.683 13.0814 99.9178 12.9632 100.125 12.8077C100.336 12.6523 100.512 12.4612 100.655 12.2344C100.8 12.0077 100.901 11.7486 100.956 11.4571L102.773 11.4668C102.705 11.9397 102.557 12.3834 102.331 12.798C102.107 13.2126 101.814 13.5786 101.451 13.896C101.089 14.2101 100.664 14.4563 100.179 14.6344C99.6927 14.8093 99.1535 14.8968 98.5607 14.8968C97.6863 14.8968 96.9057 14.6943 96.2191 14.2895C95.5324 13.8846 94.9915 13.3 94.5964 12.5357C94.2013 11.7713 94.0037 10.8547 94.0037 9.78589C94.0037 8.71383 94.2029 7.79724 94.6013 7.03611C94.9996 6.27175 95.5421 5.68714 96.2288 5.28228C96.9154 4.87743 97.6927 4.675 98.5607 4.675C99.1146 4.675 99.6296 4.75273 100.106 4.9082C100.582 5.06366 101.006 5.292 101.379 5.59321C101.751 5.89118 102.057 6.25717 102.297 6.69118C102.54 7.12194 102.698 7.61425 102.773 8.16809ZM107.601 14.9065C106.872 14.9065 106.24 14.7462 105.706 14.4255C105.172 14.1049 104.757 13.6563 104.462 13.0798C104.171 12.5033 104.025 11.8296 104.025 11.0587C104.025 10.2879 104.171 9.61261 104.462 9.03286C104.757 8.4531 105.172 8.00291 105.706 7.68226C106.24 7.36162 106.872 7.20129 107.601 7.20129C108.329 7.20129 108.961 7.36162 109.495 7.68226C110.03 8.00291 110.443 8.4531 110.734 9.03286C111.029 9.61261 111.176 10.2879 111.176 11.0587C111.176 11.8296 111.029 12.5033 110.734 13.0798C110.443 13.6563 110.03 14.1049 109.495 14.4255C108.961 14.7462 108.329 14.9065 107.601 14.9065ZM107.61 13.4976C108.006 13.4976 108.336 13.3891 108.602 13.1721C108.867 12.9519 109.065 12.6571 109.194 12.2879C109.327 11.9187 109.393 11.5073 109.393 11.0539C109.393 10.5972 109.327 10.1843 109.194 9.81504C109.065 9.44257 108.867 9.14622 108.602 8.92597C108.336 8.70573 108.006 8.59561 107.61 8.59561C107.206 8.59561 106.869 8.70573 106.6 8.92597C106.334 9.14622 106.135 9.44257 106.002 9.81504C105.873 10.1843 105.808 10.5972 105.808 11.0539C105.808 11.5073 105.873 11.9187 106.002 12.2879C106.135 12.6571 106.334 12.9519 106.6 13.1721C106.869 13.3891 107.206 13.4976 107.61 13.4976ZM112.669 14.7607V7.29846H114.35V8.56646H114.438C114.593 8.13894 114.85 7.80534 115.21 7.56566C115.57 7.32275 115.999 7.20129 116.497 7.20129C117.003 7.20129 117.429 7.32437 117.775 7.57052C118.125 7.81343 118.371 8.14541 118.514 8.56646H118.591C118.757 8.15189 119.035 7.82153 119.427 7.57538C119.822 7.32599 120.29 7.20129 120.831 7.20129C121.518 7.20129 122.078 7.4183 122.512 7.8523C122.946 8.2863 123.163 8.9195 123.163 9.75188V14.7607H121.399V10.0239C121.399 9.56079 121.276 9.22233 121.03 9.00857C120.784 8.79156 120.483 8.68306 120.127 8.68306C119.702 8.68306 119.37 8.81585 119.131 9.08144C118.894 9.34378 118.776 9.68548 118.776 10.1065V14.7607H117.051V9.95107C117.051 9.56565 116.935 9.25796 116.701 9.028C116.472 8.79804 116.17 8.68306 115.798 8.68306C115.545 8.68306 115.315 8.74784 115.108 8.87739C114.901 9.00371 114.736 9.18346 114.612 9.41666C114.489 9.64662 114.428 9.91544 114.428 10.2231V14.7607H112.669ZM124.947 17.5591V7.29846H126.677V8.53246H126.779C126.869 8.35108 126.997 8.15837 127.163 7.95432C127.328 7.74704 127.551 7.57052 127.833 7.42477C128.115 7.27579 128.474 7.20129 128.911 7.20129C129.488 7.20129 130.008 7.34866 130.471 7.64339C130.937 7.93489 131.307 8.36728 131.579 8.94055C131.854 9.51059 131.992 10.2102 131.992 11.0393C131.992 11.8587 131.857 12.5551 131.588 13.1284C131.32 13.7016 130.954 14.1389 130.49 14.4401C130.027 14.7413 129.503 14.8919 128.916 14.8919C128.489 14.8919 128.134 14.8207 127.852 14.6782C127.571 14.5356 127.344 14.364 127.172 14.1632C127.004 13.9591 126.873 13.7664 126.779 13.585H126.706V17.5591H124.947ZM126.672 11.0296C126.672 11.5122 126.74 11.9349 126.876 12.2976C127.015 12.6604 127.214 12.9438 127.473 13.1478C127.736 13.3486 128.053 13.449 128.426 13.449C128.814 13.449 129.14 13.3454 129.402 13.1381C129.665 12.9276 129.862 12.6409 129.995 12.2782C130.131 11.9122 130.199 11.496 130.199 11.0296C130.199 10.5664 130.133 10.1551 130 9.7956C129.867 9.43609 129.669 9.15431 129.407 8.95027C129.145 8.74622 128.818 8.6442 128.426 8.6442C128.05 8.6442 127.731 8.74298 127.469 8.94055C127.206 9.13812 127.007 9.41504 126.871 9.77131C126.738 10.1276 126.672 10.547 126.672 11.0296ZM133.498 14.7607V7.29846H135.203V8.54217H135.281C135.417 8.11141 135.65 7.77943 135.98 7.54623C136.314 7.30979 136.694 7.19158 137.122 7.19158C137.219 7.19158 137.328 7.19644 137.447 7.20615C137.571 7.21263 137.673 7.22397 137.754 7.24016V8.85796C137.679 8.83205 137.561 8.80938 137.399 8.78994C137.24 8.76727 137.086 8.75594 136.937 8.75594C136.617 8.75594 136.328 8.82557 136.073 8.96484C135.82 9.10087 135.621 9.29034 135.475 9.53326C135.329 9.77617 135.256 10.0563 135.256 10.3737V14.7607H133.498ZM140.936 14.9113C140.463 14.9113 140.037 14.8271 139.658 14.6587C139.282 14.4871 138.984 14.2344 138.764 13.9008C138.547 13.5672 138.439 13.1559 138.439 12.6668C138.439 12.2458 138.516 11.8976 138.672 11.6223C138.827 11.347 139.039 11.1268 139.308 10.9616C139.577 10.7964 139.88 10.6717 140.217 10.5875C140.557 10.5001 140.908 10.4369 141.271 10.398C141.708 10.3527 142.063 10.3122 142.335 10.2766C142.607 10.2377 142.804 10.1794 142.928 10.1017C143.054 10.0207 143.117 9.89601 143.117 9.72759V9.69844C143.117 9.33245 143.009 9.04905 142.792 8.84824C142.575 8.64743 142.262 8.54703 141.854 8.54703C141.423 8.54703 141.081 8.64096 140.829 8.82881C140.579 9.01666 140.411 9.23852 140.324 9.49439L138.681 9.26119C138.811 8.80776 139.025 8.42881 139.323 8.12436C139.621 7.81667 139.985 7.58672 140.416 7.43449C140.847 7.27903 141.323 7.20129 141.844 7.20129C142.204 7.20129 142.562 7.2434 142.918 7.32761C143.274 7.41182 143.6 7.55109 143.894 7.74542C144.189 7.93651 144.426 8.19724 144.604 8.5276C144.785 8.85796 144.876 9.27091 144.876 9.76645V14.7607H143.185V13.7356H143.127C143.02 13.9429 142.869 14.1373 142.675 14.3186C142.484 14.4968 142.243 14.6409 141.951 14.751C141.663 14.8579 141.324 14.9113 140.936 14.9113ZM141.392 13.6191C141.745 13.6191 142.051 13.5494 142.311 13.4101C142.57 13.2676 142.769 13.0798 142.908 12.8466C143.051 12.6134 143.122 12.3591 143.122 12.0838V11.2045C143.067 11.2498 142.973 11.2919 142.84 11.3308C142.711 11.3697 142.565 11.4037 142.403 11.4328C142.241 11.462 142.081 11.4879 141.922 11.5106C141.763 11.5332 141.626 11.5527 141.509 11.5689C141.247 11.6045 141.012 11.6628 140.805 11.7438C140.597 11.8247 140.434 11.9381 140.314 12.0838C140.194 12.2264 140.134 12.411 140.134 12.6377C140.134 12.9616 140.252 13.2061 140.489 13.3713C140.725 13.5365 141.026 13.6191 141.392 13.6191ZM155.936 9.27091L154.332 9.44581C154.287 9.28387 154.208 9.13164 154.094 8.98913C153.984 8.84662 153.835 8.73164 153.647 8.6442C153.459 8.55675 153.229 8.51302 152.957 8.51302C152.591 8.51302 152.284 8.59237 152.034 8.75108C151.788 8.90978 151.667 9.11545 151.67 9.36808C151.667 9.58508 151.746 9.7616 151.908 9.89763C152.073 10.0337 152.345 10.1454 152.724 10.2328L153.997 10.5049C154.703 10.6571 155.228 10.8984 155.571 11.2288C155.918 11.5592 156.093 11.9915 156.096 12.5259C156.093 12.9956 155.955 13.4101 155.683 13.7697C155.414 14.1259 155.04 14.4045 154.561 14.6053C154.081 14.8061 153.531 14.9065 152.909 14.9065C151.996 14.9065 151.26 14.7154 150.703 14.3332C150.146 13.9478 149.814 13.4118 149.707 12.7251L151.422 12.56C151.5 12.8968 151.665 13.151 151.918 13.3227C152.17 13.4944 152.499 13.5802 152.904 13.5802C153.322 13.5802 153.657 13.4944 153.91 13.3227C154.166 13.151 154.293 12.9389 154.293 12.6863C154.293 12.4725 154.211 12.296 154.046 12.1567C153.884 12.0174 153.631 11.9106 153.288 11.8361L152.015 11.5689C151.299 11.4199 150.77 11.1689 150.426 10.8158C150.083 10.4596 149.913 10.0094 149.916 9.46524C149.913 9.00533 150.038 8.60695 150.29 8.27011C150.546 7.93003 150.901 7.66769 151.354 7.48307C151.811 7.29522 152.337 7.20129 152.933 7.20129C153.808 7.20129 154.496 7.38753 154.998 7.75999C155.503 8.13246 155.816 8.6361 155.936 9.27091ZM160.85 14.9065C160.102 14.9065 159.455 14.751 158.911 14.4401C158.37 14.1259 157.954 13.6822 157.663 13.1089C157.371 12.5324 157.225 11.8539 157.225 11.0733C157.225 10.3057 157.371 9.63204 157.663 9.05229C157.957 8.4693 158.369 8.01586 158.897 7.69198C159.425 7.36485 160.045 7.20129 160.757 7.20129C161.217 7.20129 161.651 7.27579 162.059 7.42477C162.471 7.57052 162.833 7.79724 163.148 8.10493C163.465 8.41262 163.714 8.80452 163.896 9.28063C164.077 9.7535 164.168 10.3171 164.168 10.9713V11.5106H158.051V10.3252H162.482C162.479 9.98831 162.406 9.68872 162.263 9.42638C162.121 9.16079 161.922 8.95189 161.666 8.79966C161.413 8.64743 161.119 8.57132 160.782 8.57132C160.422 8.57132 160.106 8.65877 159.834 8.83367C159.562 9.00533 159.35 9.23205 159.198 9.51382C159.049 9.79236 158.973 10.0984 158.97 10.432V11.4668C158.97 11.9008 159.049 12.2733 159.208 12.5842C159.366 12.8919 159.588 13.1284 159.873 13.2935C160.158 13.4555 160.492 13.5365 160.874 13.5365C161.13 13.5365 161.361 13.5008 161.569 13.4296C161.776 13.3551 161.956 13.2466 162.108 13.1041C162.26 12.9616 162.375 12.7851 162.453 12.5745L164.095 12.7591C163.991 13.1931 163.794 13.5721 163.502 13.896C163.214 14.2166 162.845 14.466 162.395 14.6441C161.944 14.819 161.429 14.9065 160.85 14.9065ZM168.901 17.7146C168.269 17.7146 167.727 17.6287 167.274 17.4571C166.82 17.2887 166.456 17.0619 166.18 16.7769C165.905 16.4919 165.714 16.1761 165.607 15.8296L167.191 15.4458C167.262 15.5915 167.366 15.7356 167.502 15.8781C167.638 16.0239 167.821 16.1437 168.051 16.2377C168.284 16.3348 168.577 16.3834 168.93 16.3834C169.429 16.3834 169.842 16.2619 170.169 16.019C170.496 15.7794 170.66 15.3842 170.66 14.8336V13.4199H170.572C170.482 13.6012 170.349 13.7875 170.174 13.9786C170.002 14.1697 169.774 14.33 169.489 14.4595C169.207 14.5891 168.852 14.6539 168.425 14.6539C167.852 14.6539 167.332 14.5194 166.865 14.2506C166.402 13.9786 166.033 13.5737 165.758 13.0361C165.486 12.4952 165.35 11.8183 165.35 11.0053C165.35 10.1859 165.486 9.49439 165.758 8.93083C166.033 8.36404 166.404 7.93489 166.87 7.64339C167.337 7.34866 167.857 7.20129 168.43 7.20129C168.867 7.20129 169.227 7.27579 169.508 7.42477C169.793 7.57052 170.02 7.74704 170.188 7.95432C170.357 8.15837 170.485 8.35108 170.572 8.53246H170.669V7.29846H172.404V14.8822C172.404 15.5202 172.252 16.0482 171.947 16.466C171.643 16.8838 171.227 17.1963 170.699 17.4036C170.171 17.6109 169.571 17.7146 168.901 17.7146ZM168.916 13.2741C169.288 13.2741 169.605 13.1834 169.868 13.0021C170.13 12.8207 170.329 12.56 170.465 12.2199C170.601 11.8798 170.669 11.4717 170.669 10.9956C170.669 10.526 170.601 10.1146 170.465 9.7616C170.333 9.40856 170.135 9.13488 169.873 8.94055C169.614 8.74298 169.295 8.6442 168.916 8.6442C168.524 8.6442 168.197 8.74622 167.934 8.95027C167.672 9.15431 167.474 9.43447 167.342 9.79074C167.209 10.1438 167.142 10.5454 167.142 10.9956C167.142 11.4523 167.209 11.8523 167.342 12.1956C167.478 12.5357 167.677 12.8012 167.939 12.9923C168.205 13.1802 168.53 13.2741 168.916 13.2741ZM178.962 11.6223V7.29846H180.721V14.7607H179.016V13.4344H178.938C178.77 13.8522 178.493 14.1939 178.107 14.4595C177.725 14.7251 177.254 14.8579 176.694 14.8579C176.205 14.8579 175.772 14.7494 175.397 14.5324C175.024 14.3122 174.733 13.9931 174.522 13.5753C174.312 13.1543 174.206 12.6458 174.206 12.0498V7.29846H175.965V11.7778C175.965 12.2506 176.094 12.6263 176.354 12.9049C176.613 13.1834 176.953 13.3227 177.374 13.3227C177.633 13.3227 177.884 13.2595 178.127 13.1332C178.37 13.0069 178.569 12.8191 178.724 12.5697C178.883 12.317 178.962 12.0013 178.962 11.6223ZM182.53 14.7607V7.29846H184.235V8.54217H184.313C184.449 8.11141 184.682 7.77943 185.012 7.54623C185.346 7.30979 185.726 7.19158 186.154 7.19158C186.251 7.19158 186.36 7.19644 186.479 7.20615C186.602 7.21263 186.705 7.22397 186.785 7.24016V8.85796C186.711 8.83205 186.593 8.80938 186.431 8.78994C186.272 8.76727 186.118 8.75594 185.969 8.75594C185.649 8.75594 185.36 8.82557 185.105 8.96484C184.852 9.10087 184.653 9.29034 184.507 9.53326C184.361 9.77617 184.288 10.0563 184.288 10.3737V14.7607H182.53ZM189.968 14.9113C189.495 14.9113 189.069 14.8271 188.69 14.6587C188.314 14.4871 188.016 14.2344 187.796 13.9008C187.579 13.5672 187.47 13.1559 187.47 12.6668C187.47 12.2458 187.548 11.8976 187.704 11.6223C187.859 11.347 188.071 11.1268 188.34 10.9616C188.609 10.7964 188.912 10.6717 189.249 10.5875C189.589 10.5001 189.94 10.4369 190.303 10.398C190.74 10.3527 191.095 10.3122 191.367 10.2766C191.639 10.2377 191.836 10.1794 191.96 10.1017C192.086 10.0207 192.149 9.89601 192.149 9.72759V9.69844C192.149 9.33245 192.04 9.04905 191.823 8.84824C191.606 8.64743 191.294 8.54703 190.886 8.54703C190.455 8.54703 190.113 8.64096 189.861 8.82881C189.611 9.01666 189.443 9.23852 189.356 9.49439L187.713 9.26119C187.843 8.80776 188.057 8.42881 188.355 8.12436C188.653 7.81667 189.017 7.58672 189.448 7.43449C189.879 7.27903 190.355 7.20129 190.876 7.20129C191.236 7.20129 191.594 7.2434 191.95 7.32761C192.306 7.41182 192.632 7.55109 192.926 7.74542C193.221 7.93651 193.457 8.19724 193.636 8.5276C193.817 8.85796 193.908 9.27091 193.908 9.76645V14.7607H192.217V13.7356H192.159C192.052 13.9429 191.901 14.1373 191.707 14.3186C191.516 14.4968 191.275 14.6409 190.983 14.751C190.695 14.8579 190.356 14.9113 189.968 14.9113ZM190.424 13.6191C190.777 13.6191 191.083 13.5494 191.343 13.4101C191.602 13.2676 191.801 13.0798 191.94 12.8466C192.083 12.6134 192.154 12.3591 192.154 12.0838V11.2045C192.099 11.2498 192.005 11.2919 191.872 11.3308C191.743 11.3697 191.597 11.4037 191.435 11.4328C191.273 11.462 191.113 11.4879 190.954 11.5106C190.795 11.5332 190.658 11.5527 190.541 11.5689C190.279 11.6045 190.044 11.6628 189.836 11.7438C189.629 11.8247 189.466 11.9381 189.346 12.0838C189.226 12.2264 189.166 12.411 189.166 12.6377C189.166 12.9616 189.284 13.2061 189.521 13.3713C189.757 13.5365 190.058 13.6191 190.424 13.6191Z" fill="white"></path><path d="M6.00653 2.05174C5.4177 2.91535 4.84752 3.61507 4.42749 4.39625C3.12422 6.81436 2.88771 9.35123 3.85927 11.9381C5.03202 15.0609 7.2568 17.0521 10.5189 17.8205C13.6505 18.5575 16.418 17.7567 18.8292 15.6831C19.1619 15.3975 19.3503 15.4083 19.63 15.7017C20.1462 16.2444 20.6771 16.7734 21.2179 17.2906C21.4829 17.5438 21.4691 17.7145 21.1963 17.9648C18.5495 20.3927 15.4199 21.5311 11.8506 21.3338C8.76027 21.1631 6.06639 19.9609 3.8367 17.8058C2.06041 16.0894 0.908268 14.0049 0.333181 11.6005C-0.156527 9.55928 -0.0976441 7.52292 0.447021 5.51109C0.97402 3.566 1.92596 1.83387 3.29498 0.342178C3.70716 -0.107293 3.7523 -0.107293 4.18214 0.302923C4.80434 0.896657 5.42359 1.49333 6.00653 2.05272V2.05174Z" fill="white"></path><path d="M40.054 5.57765C41.0981 5.57765 42.0255 5.55998 42.95 5.59727C43.0845 5.60316 43.2719 5.85538 43.3269 6.0281C43.9726 8.07329 44.5968 10.1244 45.2307 12.1735C45.2612 12.2706 45.3249 12.357 45.4368 12.57C45.6684 11.8055 45.8637 11.1646 46.0561 10.5238C46.5203 8.98205 46.9737 7.43638 47.4604 5.9015C47.5065 5.75724 47.7539 5.58942 47.9148 5.58255C48.6646 5.54919 49.4173 5.57961 50.168 5.56293C50.5449 5.55508 50.6097 5.79944 50.695 6.07717C51.3123 8.09881 51.9384 10.1185 52.5636 12.1391C52.6019 12.2618 52.6519 12.3806 52.7402 12.619C53.1161 11.3903 53.4596 10.2677 53.8021 9.14496C54.1151 8.11843 54.437 7.09486 54.7354 6.06441C54.8433 5.69149 55.0396 5.54035 55.4371 5.55802C56.1054 5.58746 56.7757 5.5698 57.4459 5.56587C57.7737 5.56391 57.9425 5.63653 57.7973 6.02516C57.0249 8.09586 56.2663 10.1715 55.5087 12.2481C55.1417 13.2559 54.7766 14.2648 54.4331 15.2815C54.2938 15.6947 54.121 15.9449 53.6097 15.9037C52.9277 15.8497 52.2387 15.8811 51.5528 15.8949C51.2682 15.9008 51.119 15.8173 51.0258 15.5229C50.5272 13.9586 50.0042 12.4021 49.487 10.8437C49.3339 10.3835 49.1719 9.92711 48.9845 9.38441C48.5291 10.7927 48.1032 12.1195 47.6724 13.4434C47.4408 14.1549 47.22 14.8703 46.953 15.5681C46.8981 15.7114 46.6645 15.8684 46.5065 15.8752C45.7567 15.9076 45.004 15.8703 44.2533 15.8988C43.9059 15.9116 43.7528 15.7575 43.6468 15.467C43.2189 14.2903 42.7832 13.1176 42.3523 11.9419C41.6595 10.0478 40.9686 8.15278 40.2787 6.25774C40.2139 6.07913 40.159 5.8966 40.053 5.57765H40.054Z" fill="white"></path><path d="M28.6085 11.816C28.0393 12.505 27.2169 12.9063 27.373 13.9495C27.4466 14.4442 27.373 14.9584 27.3897 15.4638C27.3995 15.772 27.3023 15.9044 26.9736 15.8976C26.2228 15.8799 25.4711 15.8819 24.7203 15.8976C24.4171 15.9035 24.3071 15.772 24.3121 15.4942C24.314 15.3961 24.3091 15.2989 24.3091 15.2008C24.3091 10.9465 24.3091 6.69127 24.3091 2.437C24.3091 1.6676 24.3121 1.66662 25.0638 1.66563C25.6516 1.66563 26.2405 1.68526 26.8273 1.65975C27.2513 1.6411 27.3975 1.78929 27.3946 2.22109C27.3769 4.35657 27.3867 6.49205 27.3867 8.62753C27.3867 8.80516 27.3867 8.98279 27.3867 9.28112C27.583 9.10251 27.7115 8.99653 27.8274 8.87778C28.7685 7.90621 29.693 6.91797 30.6586 5.96996C30.8647 5.76779 31.2111 5.62549 31.5016 5.60685C32.2818 5.55778 33.0679 5.5882 33.852 5.59213C34.01 5.59213 34.1671 5.61862 34.4409 5.64316C34.1445 5.9837 33.9266 6.25358 33.6881 6.50383C32.801 7.43614 31.9128 8.36746 31.01 9.28407C30.7901 9.50782 30.7568 9.66092 30.9383 9.94552C32.1317 11.8092 33.2995 13.6885 34.4732 15.5639C34.5135 15.6287 34.5262 15.7101 34.5684 15.8338C34.4173 15.8564 34.2986 15.8897 34.1798 15.8907C33.2652 15.8946 32.3505 15.8829 31.4369 15.8995C31.1346 15.9054 30.9707 15.7916 30.8206 15.5345C30.1179 14.3264 29.3926 13.1311 28.6075 11.818L28.6085 11.816Z" fill="white"></path><path d="M71.8602 16.5477C72.2459 16.7096 72.5364 16.8548 72.8426 16.9549C73.6885 17.2327 74.7602 16.5379 74.7475 15.6615C74.7416 15.2788 74.51 14.8931 74.352 14.5211C73.5619 12.6653 72.7611 10.8154 71.9652 8.96163C71.5805 8.06563 71.1968 7.16963 70.82 6.26971C70.7415 6.08128 70.6953 5.8801 70.5962 5.5641C71.0653 5.5641 71.4481 5.5641 71.8308 5.5641C72.3372 5.5641 72.8465 5.53466 73.348 5.58274C73.5266 5.59943 73.7798 5.76822 73.8436 5.92819C74.4893 7.55924 75.1007 9.20501 75.7269 10.8439C75.9045 11.3091 76.0968 11.7684 76.3971 12.2326C76.5807 11.7203 76.7691 11.209 76.9467 10.6947C77.4884 9.12748 78.0351 7.5612 78.5591 5.98805C78.6671 5.66322 78.8447 5.55625 79.1666 5.56115C79.9919 5.57293 80.8163 5.56508 81.7702 5.56508C81.4777 6.33448 81.2402 6.98219 80.987 7.62401C80.201 9.62013 79.4159 11.6172 78.616 13.6085C78.0645 14.9804 77.5414 16.3671 76.9065 17.7008C76.3108 18.954 75.2499 19.6214 73.8387 19.7067C72.7788 19.7705 71.7876 19.5958 70.9299 18.9344C70.8121 18.8431 70.6659 18.5978 70.7091 18.5183C71.0751 17.8402 71.4824 17.1826 71.8612 16.5467L71.8602 16.5477Z" fill="white"></path><path d="M70.7331 4.42561C70.1756 4.31962 69.6898 4.16064 69.2001 4.14984C68.4671 4.13316 67.8988 5.20384 68.2816 5.828C68.3385 5.92025 68.5269 5.96735 68.6574 5.97226C69.1628 5.98993 69.6692 5.98993 70.1746 5.97913C70.5103 5.97226 70.6418 6.11162 70.628 6.44725C70.6094 6.90261 70.6123 7.35993 70.6261 7.81529C70.6349 8.11265 70.5024 8.22452 70.2178 8.2206C69.7281 8.21471 69.2374 8.24219 68.7497 8.21471C68.3336 8.19116 68.2207 8.36192 68.2237 8.75545C68.2374 10.9066 68.2305 13.0578 68.2296 15.208C68.2296 15.8871 68.2266 15.8881 67.5711 15.8881C66.9341 15.8881 66.2972 15.8665 65.6613 15.896C65.2687 15.9146 65.1608 15.7772 65.1637 15.3954C65.1794 13.2119 65.1559 11.0283 65.1824 8.84475C65.1883 8.35799 65.0725 8.18429 64.5651 8.20882C63.8045 8.24709 63.8035 8.21471 63.8026 7.43157C63.8026 7.10575 63.8163 6.77895 63.7996 6.45412C63.7829 6.12339 63.9144 5.99189 64.2501 5.9752C65.1637 5.93104 65.1637 5.91927 65.1716 5.03014C65.1893 3.11841 66.5386 1.73467 68.5632 1.55704C69.5456 1.47068 70.473 1.67677 71.366 2.08012C71.6771 2.22045 71.7821 2.3814 71.5937 2.71801C71.2767 3.28427 71.0059 3.87506 70.7311 4.42365L70.7331 4.42561Z" fill="white"></path><path d="M62.0778 10.7713C62.0778 12.3042 62.067 13.8381 62.0857 15.371C62.0906 15.7812 61.9493 15.9117 61.5469 15.896C60.8452 15.8695 60.1416 15.8754 59.4399 15.8941C59.0954 15.9029 58.9325 15.8067 58.9335 15.4308C58.9423 12.2993 58.9404 9.1677 58.9355 6.03612C58.9355 5.70343 59.0748 5.56113 59.4036 5.5631C60.1386 5.56898 60.8737 5.57291 61.6087 5.56211C61.9758 5.55721 62.0847 5.72895 62.0818 6.07341C62.071 7.63871 62.0769 9.20499 62.0769 10.7713H62.0778Z" fill="white"></path><path d="M38.9688 10.7192C38.9688 12.2678 38.959 13.8154 38.9757 15.364C38.9796 15.7595 38.8638 15.9166 38.4477 15.8999C37.747 15.8704 37.0433 15.8802 36.3426 15.8969C36.0178 15.9048 35.8706 15.8115 35.8716 15.4592C35.8804 12.3139 35.8794 9.1686 35.8735 6.02328C35.8735 5.71611 35.9883 5.56891 36.2994 5.56989C37.0502 5.57283 37.8009 5.57578 38.5527 5.56792C38.9178 5.564 38.9747 5.775 38.9727 6.0753C38.9668 7.62391 38.9698 9.17154 38.9698 10.7202L38.9688 10.7192Z" fill="white"></path><path d="M60.522 4.43218C59.57 4.43414 58.832 3.68241 58.8379 2.71771C58.8438 1.76676 59.5602 1.04348 60.4994 1.04054C61.4788 1.03759 62.1844 1.75694 62.1727 2.74813C62.1619 3.72166 61.467 4.4312 60.5229 4.43316L60.522 4.43218Z" fill="white"></path><path d="M37.4168 1.03909C38.3648 1.03418 39.1018 1.75549 39.1058 2.69271C39.1097 3.68194 38.3992 4.4268 37.4472 4.43269C36.4796 4.43858 35.7769 3.71825 35.7759 2.72215C35.7759 1.74372 36.458 1.04399 37.4168 1.03909V1.03909Z" fill="white"></path><path d="M7.42252 13.3121C7.42448 12.3857 8.76799 11.053 9.68754 11.0785C10.0879 11.0893 10.3313 11.2856 10.3195 11.7154C10.3009 12.3916 9.89264 12.8715 9.42943 13.2787C9.10852 13.5604 8.70812 13.7714 8.31165 13.9412C7.8396 14.1433 7.42154 13.8205 7.42252 13.3131V13.3121Z" fill="white"></path><path d="M16.2218 14.4197C16.1433 14.5688 16.0648 14.9545 15.8695 15.0271C15.6133 15.1213 15.1904 15.0693 14.9715 14.9045C14.2208 14.3362 13.8056 13.5413 13.8272 12.5884C13.8331 12.3421 14.0196 11.978 14.2207 11.8907C14.4278 11.8004 14.8125 11.9034 15.0166 12.0575C15.7429 12.6041 16.0971 13.3794 16.2218 14.4197V14.4197Z" fill="white"></path><path d="M12.7709 13.5464C12.6983 14.3345 12.609 14.993 12.1202 15.5112C11.6992 15.9567 11.1595 15.8831 10.973 15.3051C10.6599 14.3325 10.7365 13.3718 11.3842 12.5396C11.816 11.9851 12.3479 12.093 12.5952 12.7613C12.6992 13.045 12.7306 13.3551 12.7719 13.5464H12.7709Z" fill="white"></path><path d="M6.8799 10.6193C6.69835 10.5741 6.38725 10.5339 6.10462 10.4201C5.49518 10.1747 5.41078 9.59079 5.93582 9.20413C6.7749 8.58684 7.7288 8.52599 8.68957 8.80176C9.2725 8.96859 9.33924 9.58981 8.87407 9.98628C8.33529 10.4465 7.68365 10.5604 6.8799 10.6193Z" fill="white"></path><path d="M7.3235 5.24567C8.06935 5.28394 8.82403 5.69612 9.38734 6.42921C9.79363 6.95817 9.52964 7.50284 8.86721 7.5784C8.05463 7.67164 6.75528 7.01019 6.35979 6.30065C6.00845 5.67257 6.32544 5.2388 7.3235 5.24469V5.24567Z" fill="white"></path></svg>